<?xml version="1.0" encoding="UTF-8" ?>
<!DOCTYPE svg PUBLIC "-//W3C//DTD SVG 1.1//EN" "http://www.w3.org/Graphics/SVG/1.1/DTD/svg11.dtd">
<svg width="2435pt" height="413pt" viewBox="0 0 2435 413" version="1.1" xmlns="http://www.w3.org/2000/svg">
<g id="#005844ff">
<path fill="#005844" opacity="1.00" d=" M 1287.83 5.94 C 1304.99 -1.46 1325.50 -0.97 1342.02 7.92 C 1349.22 11.71 1355.48 17.11 1360.69 23.33 C 1412.79 88.14 1464.85 152.98 1516.99 217.76 C 1517.03 147.68 1516.94 77.60 1517.07 7.52 C 1553.54 7.52 1590.02 7.54 1626.50 7.50 C 1626.60 118.34 1626.52 229.18 1626.50 340.01 C 1626.68 349.97 1626.82 360.14 1623.79 369.75 C 1619.33 385.55 1607.41 398.76 1592.72 405.84 C 1570.74 416.62 1542.70 413.76 1523.69 398.23 C 1517.69 393.53 1513.32 387.21 1508.70 381.25 C 1458.91 316.86 1409.29 252.34 1359.49 187.96 C 1359.57 260.72 1359.58 333.49 1359.49 406.25 C 1323.00 406.25 1286.50 406.25 1250.00 406.25 C 1249.99 294.17 1250.01 182.10 1250.00 70.02 C 1249.90 61.78 1250.11 53.39 1252.64 45.47 C 1257.62 27.88 1270.98 12.99 1287.83 5.94 Z" />
<path fill="#005844" opacity="1.00" d=" M 556.99 7.59 C 631.16 7.37 705.33 7.70 779.49 7.50 C 779.51 38.83 779.50 70.16 779.50 101.50 C 712.02 101.52 644.54 101.52 577.06 101.53 C 576.98 121.62 577.01 141.71 577.07 161.81 C 636.32 161.77 695.56 161.71 754.81 161.84 C 754.77 190.89 754.91 219.95 754.74 249.00 C 695.49 249.00 636.25 249.00 577.00 249.00 C 577.00 270.00 577.00 291.00 577.00 311.99 C 644.52 312.14 712.03 311.88 779.55 312.08 C 779.46 343.49 779.67 374.89 779.48 406.30 C 706.29 406.26 633.10 406.17 559.91 406.36 C 540.94 407.69 521.09 405.29 504.34 395.75 C 488.53 387.08 477.13 371.42 472.50 354.10 C 467.32 336.88 468.66 318.73 468.50 300.99 C 468.50 241.00 468.50 181.01 468.50 121.02 C 468.72 103.28 467.18 85.11 472.54 67.92 C 477.21 51.11 487.77 36.05 502.02 25.97 C 518.07 14.69 537.52 8.79 556.99 7.59 Z" />
<path fill="#005844" opacity="1.00" d=" M 0.08 7.53 C 41.38 7.53 82.69 7.59 124.00 7.56 C 154.10 91.44 184.07 175.37 214.33 259.19 C 244.43 175.28 274.57 91.39 304.70 7.50 C 345.23 7.62 385.75 7.48 426.28 7.49 C 378.07 126.59 329.55 245.57 281.78 364.84 C 274.25 382.89 259.39 397.85 241.19 405.12 C 226.93 410.78 210.82 412.00 195.97 407.94 C 182.23 404.29 169.88 396.02 160.82 385.11 C 153.93 377.08 149.20 367.47 145.34 357.68 C 96.88 240.98 48.45 124.27 0.08 7.53 Z" />
<path fill="#005844" opacity="1.00" d=" M 832.35 104.53 C 832.17 72.18 832.33 39.83 832.31 7.48 C 951.61 7.60 1070.92 7.54 1190.23 7.58 C 1190.29 39.87 1190.23 72.17 1190.25 104.47 C 1147.75 104.65 1105.24 104.40 1062.73 104.56 C 1062.91 170.40 1062.76 236.23 1062.81 302.07 C 1062.62 336.84 1063.01 371.62 1062.66 406.39 C 1025.85 406.03 989.05 406.47 952.25 406.23 C 952.34 305.68 952.38 205.13 952.23 104.58 C 912.27 104.41 872.31 104.56 832.35 104.53 Z" />
<path fill="#005844" opacity="1.00" d=" M 1765.07 7.52 C 1802.13 7.65 1839.19 7.50 1876.25 7.51 C 1876.28 140.44 1876.32 273.37 1876.24 406.30 C 1839.18 406.25 1802.12 406.23 1765.07 406.26 C 1765.02 273.34 1765.00 140.43 1765.07 7.52 Z" />
<path fill="#005844" opacity="1.00" d=" M 2026.49 7.55 C 2063.43 7.54 2100.36 7.63 2137.30 7.50 C 2137.36 108.11 2137.10 208.71 2137.39 309.31 C 2194.76 309.23 2252.13 309.25 2309.51 309.26 C 2309.50 341.60 2309.47 373.94 2309.57 406.27 C 2250.39 406.22 2191.22 406.27 2132.04 406.25 C 2125.02 406.12 2118.01 406.54 2111.00 406.50 C 2090.68 406.03 2069.79 400.28 2054.02 387.01 C 2040.70 375.94 2032.55 359.70 2029.06 342.94 C 2026.96 333.10 2026.36 323.00 2026.49 312.96 C 2026.49 211.16 2026.67 109.35 2026.49 7.55 Z" />
<path fill="#005844" opacity="1.00" d=" M 2363.20 10.29 C 2378.24 8.22 2394.17 11.55 2406.71 20.26 C 2421.33 30.08 2431.46 46.36 2433.59 63.88 C 2435.63 79.66 2431.71 96.28 2422.24 109.15 C 2412.66 122.45 2397.74 131.81 2381.53 134.40 C 2368.62 136.27 2355.03 134.52 2343.40 128.46 C 2326.79 120.21 2314.45 104.05 2310.69 85.91 C 2307.59 71.87 2309.57 56.83 2316.11 44.04 C 2325.07 26.03 2343.20 12.88 2363.20 10.29 M 2361.60 17.74 C 2346.29 20.49 2332.52 30.28 2324.60 43.62 C 2315.87 58.37 2314.37 77.13 2320.57 93.10 C 2325.38 105.81 2335.15 116.60 2347.43 122.47 C 2363.85 130.65 2384.42 129.71 2400.05 120.11 C 2416.33 110.46 2426.66 91.81 2426.58 72.93 C 2427.00 57.30 2420.45 41.61 2408.88 31.07 C 2396.43 19.42 2378.27 14.54 2361.60 17.74 Z" />
<path fill="#005844" opacity="1.00" d=" M 2344.24 37.30 C 2355.39 37.28 2366.55 37.13 2377.71 37.39 C 2386.30 37.76 2395.97 40.56 2400.51 48.51 C 2405.16 57.31 2404.40 69.77 2396.55 76.53 C 2394.63 78.31 2392.31 79.54 2390.04 80.73 C 2395.01 88.56 2400.53 96.02 2405.67 103.74 C 2398.51 103.76 2391.36 103.70 2384.22 103.85 C 2379.69 97.21 2375.30 90.49 2370.81 83.83 C 2368.11 83.81 2365.42 83.81 2362.75 83.81 C 2362.74 90.45 2362.74 97.10 2362.75 103.75 C 2356.57 103.75 2350.41 103.75 2344.25 103.75 C 2344.24 81.60 2344.27 59.45 2344.24 37.30 M 2362.74 53.58 C 2362.75 58.79 2362.72 64.00 2362.77 69.22 C 2368.58 69.13 2374.59 69.94 2380.26 68.25 C 2385.90 66.03 2386.18 56.99 2380.59 54.51 C 2374.87 52.55 2368.66 53.88 2362.74 53.58 Z" />
</g>
</svg>
